<svg width="34" height="34" viewBox="0 0 34 34" fill="none" xmlns="http://www.w3.org/2000/svg">
<path d="M16.6423 29.1218C16.4598 29.1229 16.2789 29.0879 16.1099 29.0189C15.941 28.9499 15.7873 28.8482 15.6577 28.7196L4.88225 17.9303C3.53062 16.5646 2.77246 14.7207 2.77246 12.7992C2.77246 10.8777 3.53062 9.03378 4.88225 7.66803C6.24445 6.30967 8.08969 5.54687 10.0134 5.54688C11.9371 5.54687 13.7824 6.30967 15.1446 7.66803L16.6423 9.16577L18.1401 7.66803C19.5023 6.30967 21.3475 5.54687 23.2712 5.54688C25.1949 5.54687 27.0402 6.30967 28.4024 7.66803C29.754 9.03378 30.5122 10.8777 30.5122 12.7992C30.5122 14.7207 29.754 16.5646 28.4024 17.9303L17.6269 28.7196C17.4974 28.8482 17.3437 28.9499 17.1747 29.0189C17.0058 29.0879 16.8248 29.1229 16.6423 29.1218Z" fill="white"/>
</svg>
