<svg width="33" height="33" viewBox="0 0 33 33" fill="none" xmlns="http://www.w3.org/2000/svg">
<path d="M26.3994 9.62388H25.8632C26.0279 9.18377 26.1163 8.71875 26.1244 8.24888C26.0956 7.13044 25.6253 6.06885 24.8164 5.29597C24.0074 4.52308 22.9255 4.10171 21.8069 4.12388C20.7077 4.14762 19.635 4.46647 18.7013 5.04703C17.7675 5.6276 17.007 6.44854 16.4994 7.42388C15.9918 6.44854 15.2313 5.6276 14.2976 5.04703C13.3639 4.46647 12.2912 4.14762 11.1919 4.12388C10.0733 4.10171 8.99141 4.52308 8.18246 5.29597C7.37351 6.06885 6.90327 7.13044 6.87443 8.24888C6.88255 8.71875 6.97091 9.18377 7.13568 9.62388H6.59943C6.2376 9.65823 5.88618 9.76397 5.56548 9.93498C5.24477 10.106 4.96114 10.3389 4.73099 10.6202C4.50084 10.9015 4.32874 11.2256 4.22462 11.5738C4.12051 11.922 4.08645 12.2874 4.12443 12.6489V17.5989C4.06019 18.2647 4.23137 18.932 4.6082 19.4847C4.98502 20.0373 5.54365 20.4404 6.18693 20.6239V26.6326C6.22937 27.2563 6.51286 27.839 6.97738 28.2573C7.4419 28.6756 8.05098 28.8968 8.67568 28.8739H24.3232C24.9569 28.8963 25.5738 28.6676 26.0398 28.2376C26.5059 27.8076 26.7833 27.2111 26.8119 26.5776V20.6239C27.4552 20.4404 28.0138 20.0373 28.3907 19.4847C28.7675 18.932 28.9387 18.2647 28.8744 17.5989V12.6489C28.9124 12.2874 28.8783 11.922 28.7742 11.5738C28.6701 11.2256 28.498 10.9015 28.2679 10.6202C28.0377 10.3389 27.7541 10.106 27.4334 9.93498C27.1127 9.76397 26.7613 9.65823 26.3994 9.62388ZM26.1244 12.6489V17.5989C26.1409 17.6898 26.1409 17.783 26.1244 17.8739H17.8744V12.3739H26.1244C26.1409 12.4648 26.1409 12.558 26.1244 12.6489ZM21.8069 6.87388C22.1965 6.85118 22.5793 6.9827 22.8726 7.24C23.1659 7.4973 23.3462 7.85972 23.3744 8.24888C23.3462 8.63804 23.1659 9.00045 22.8726 9.25776C22.5793 9.51506 22.1965 9.64658 21.8069 9.62388H18.4244C18.665 8.88931 19.1118 8.23947 19.7116 7.75186C20.3114 7.26425 21.0387 6.95947 21.8069 6.87388ZM9.62443 8.24888C9.65267 7.85972 9.83294 7.4973 10.1263 7.24C10.4196 6.9827 10.8024 6.85118 11.1919 6.87388C11.9577 6.96197 12.6821 7.26788 13.2792 7.75532C13.8763 8.24276 14.3211 8.89126 14.5607 9.62388H11.1919C10.8024 9.64658 10.4196 9.51506 10.1263 9.25776C9.83294 9.00045 9.65267 8.63804 9.62443 8.24888ZM6.87443 12.6489C6.85792 12.558 6.85792 12.4648 6.87443 12.3739H15.1244V17.8739H6.87443C6.85792 17.783 6.85792 17.6898 6.87443 17.5989V12.6489ZM8.93693 20.6239H15.1244V26.1239H8.93693V20.6239ZM17.8744 26.1239V20.6239H24.0619V26.1239H17.8744Z" fill="white"/>
</svg>
