<svg width="40" height="40" viewBox="0 0 40 40" fill="none" xmlns="http://www.w3.org/2000/svg">
<path d="M16.667 23.333H23.3337V34.9997H16.667V23.333Z" fill="#0050A0"/>
<path d="M34.0335 16.9652L21.1835 3.83186C21.0286 3.67565 20.8443 3.55166 20.6412 3.46705C20.4381 3.38243 20.2202 3.33887 20.0002 3.33887C19.7802 3.33887 19.5623 3.38243 19.3592 3.46705C19.1561 3.55166 18.9718 3.67565 18.8169 3.83186L5.96686 16.9819C5.65592 17.2953 5.41035 17.6674 5.24441 18.0765C5.07846 18.4857 4.99545 18.9237 5.00019 19.3652V33.3319C4.9989 34.1851 5.32481 35.0063 5.91082 35.6264C6.49682 36.2465 7.29829 36.6183 8.15019 36.6652H13.3335V21.6652C13.3335 21.2232 13.5091 20.7992 13.8217 20.4867C14.1342 20.1741 14.5582 19.9985 15.0002 19.9985H25.0002C25.4422 19.9985 25.8661 20.1741 26.1787 20.4867C26.4913 20.7992 26.6669 21.2232 26.6669 21.6652V36.6652H31.8502C32.7021 36.6183 33.5036 36.2465 34.0896 35.6264C34.6756 35.0063 35.0015 34.1851 35.0002 33.3319V19.3652C35.0015 18.4701 34.6549 17.6095 34.0335 16.9652V16.9652Z" fill="#0050A0"/>
</svg>
