<svg width="40" height="40" viewBox="0 0 40 40" fill="none" xmlns="http://www.w3.org/2000/svg">
<path d="M20.0007 18.3333C21.3192 18.3333 22.6081 17.9423 23.7045 17.2098C24.8008 16.4773 25.6553 15.4361 26.1598 14.2179C26.6644 12.9997 26.7965 11.6593 26.5392 10.3661C26.282 9.07286 25.647 7.88497 24.7147 6.95262C23.7823 6.02027 22.5945 5.38534 21.3013 5.1281C20.008 4.87087 18.6676 5.00289 17.4494 5.50747C16.2313 6.01206 15.1901 6.86654 14.4575 7.96287C13.725 9.0592 13.334 10.3481 13.334 11.6667C13.334 13.4348 14.0364 15.1305 15.2866 16.3807C16.5368 17.631 18.2325 18.3333 20.0007 18.3333Z" fill="#0050A0"/>
<path d="M30.0007 35.0003C30.4427 35.0003 30.8666 34.8247 31.1792 34.5122C31.4917 34.1996 31.6673 33.7757 31.6673 33.3337C31.6673 30.2395 30.4382 27.272 28.2502 25.0841C26.0623 22.8962 23.0948 21.667 20.0007 21.667C16.9065 21.667 13.939 22.8962 11.7511 25.0841C9.56315 27.272 8.33398 30.2395 8.33398 33.3337C8.33398 33.7757 8.50958 34.1996 8.82214 34.5122C9.1347 34.8247 9.55862 35.0003 10.0007 35.0003H30.0007Z" fill="#0050A0"/>
</svg>
