<svg width="34" height="33" viewBox="0 0 34 33" fill="none" xmlns="http://www.w3.org/2000/svg">
<path d="M26.2663 31.9997C25.9997 32.0008 25.7368 31.9379 25.4996 31.8164L16.9996 27.3664L8.4996 31.8164C8.22359 31.9615 7.9124 32.0263 7.6014 32.0034C7.2904 31.9804 6.99207 31.8707 6.74032 31.6867C6.48857 31.5026 6.2935 31.2517 6.17729 30.9623C6.06109 30.6729 6.02839 30.3567 6.08294 30.0497L7.7496 20.6664L0.882938 13.9997C0.6687 13.7859 0.516724 13.5178 0.443317 13.2242C0.369911 12.9306 0.377846 12.6225 0.466271 12.333C0.562871 12.0368 0.740565 11.7736 0.979188 11.5733C1.21781 11.373 1.50781 11.2435 1.81627 11.1997L11.3163 9.81636L15.4996 1.26636C15.6361 0.98457 15.8492 0.746926 16.1145 0.580645C16.3797 0.414364 16.6865 0.326172 16.9996 0.326172C17.3127 0.326172 17.6195 0.414364 17.8848 0.580645C18.15 0.746926 18.3631 0.98457 18.4996 1.26636L22.7329 9.79969L32.2329 11.183C32.5414 11.2269 32.8314 11.3563 33.07 11.5566C33.3086 11.7569 33.4863 12.0201 33.5829 12.3164C33.6714 12.6058 33.6793 12.9139 33.6059 13.2075C33.5325 13.5011 33.3805 13.7692 33.1663 13.983L26.2996 20.6497L27.9663 30.033C28.0258 30.3455 27.9946 30.6684 27.8765 30.9638C27.7584 31.2591 27.5582 31.5145 27.2996 31.6997C26.9978 31.9112 26.6344 32.0167 26.2663 31.9997Z" fill="#0050A0"/>
</svg>
